<svg width="36" height="34" viewBox="0 0 36 34" fill="none" xmlns="http://www.w3.org/2000/svg">
<path d="M19.5557 2.30138C19.5418 2.22639 19.5323 2.15066 19.5273 2.07455C19.4535 1.00634 20.2533 0.0800364 21.3156 0.00478012C22.3792 -0.0697221 23.3002 0.735475 23.3744 1.80369C23.4487 2.87191 22.6486 3.79821 21.5862 3.87347C21.519 3.87859 21.4524 3.8795 21.3873 3.87693C21.3443 3.88809 21.3185 3.89337 21.2814 3.92625C21.1721 4.09758 21.5595 4.0656 21.2961 4.8144C21.2961 4.8144 21.2943 4.89659 21.2651 4.97878C21.2444 5.26624 21.1344 6.11803 21.1187 6.57168C21.1746 6.63744 21.1904 6.66941 21.1842 6.82882C21.1593 7.04433 21.1101 7.57249 21.0311 7.91091C20.964 8.20093 20.8463 8.25628 20.7513 8.32731C20.6178 8.92815 20.5826 9.42584 20.2401 10.1556C20.2091 10.7088 20.1704 10.8595 20.055 11.1296C20.0421 11.9441 20.0981 12.0654 19.5515 13.3552C19.4103 13.9584 19.5446 14.3757 19.6935 15.0025C19.8459 15.6466 20.2686 15.9158 20.3315 16.5755C20.4795 18.129 20.4425 19.1867 20.111 20.4048L20.4003 21.0937C20.7594 21.2593 21.6504 21.7121 21.1563 22.4287C21.8522 22.7964 22.9033 23.1869 23.7703 23.9325C24.119 24.2245 24.4874 24.5429 24.8181 24.9166C25.4475 25.0152 25.3803 25.0654 25.8468 25.3536C27.2185 26.1992 29.4183 27.8767 30.6935 29.0644C30.9131 29.1934 31.0027 29.2863 31.18 29.3798C31.2077 29.4332 31.2152 29.4455 31.2091 29.46C31.1482 29.615 31.1504 29.6196 31.0954 29.7431C31.1642 29.8195 31.2925 29.891 31.3691 29.958C31.4408 29.9805 31.4408 29.9459 31.5638 29.9156C31.7239 30.0663 31.9222 30.1877 31.9933 30.1806C32.2103 30.1252 32.1733 30.1703 32.3567 29.964C32.4227 29.8957 32.5333 29.9649 32.5333 29.9649C32.6021 29.8836 32.7502 29.7217 32.9476 29.6046C33.1051 29.5113 33.4057 29.5009 33.4057 29.5009C33.5064 29.5018 33.4875 29.6055 33.4788 29.6393C33.3651 29.6983 33.1242 29.7631 32.9888 29.8634C32.6942 30.1697 32.4635 30.583 32.4635 30.583C33.0567 30.5015 33.421 30.6495 33.9153 30.5925C34.1848 30.5768 34.3837 30.5943 34.6668 30.3883C34.6668 30.3883 34.9389 30.1936 35.1826 30.0903C35.4193 29.9865 35.644 30.0418 35.8524 30.194C35.9996 30.361 36.0882 30.3619 35.8644 30.5976C35.7836 30.6891 35.6664 30.7914 35.5176 30.9395C35.2558 31.1995 34.9035 31.5461 34.5387 31.8329C34.1692 32.1229 33.75 32.3834 33.4882 32.5028C32.8279 32.9799 32.9837 32.8551 32.4646 33.3279C32.399 33.3869 32.2252 33.4923 32.1409 33.5486C31.9361 33.6837 31.8722 33.571 31.7387 33.3236C31.7387 33.3236 31.6777 33.2311 31.5769 33.0335C31.4668 32.818 31.3841 32.5716 31.4176 32.5757C31.2946 32.56 30.7408 31.9073 30.7394 31.7673C30.6223 31.7403 30.1227 31.2541 30.1049 31.1612L29.6624 30.8045C29.1561 30.9102 29.04 30.5941 27.7029 29.6402C27.5504 29.6375 27.3147 29.5547 26.9769 29.3029C26.3736 28.8169 24.9261 27.7176 24.6806 27.592C24.4171 27.457 24.1022 27.3299 23.909 27.1696C23.6197 27.116 23.4614 27.0856 23.3167 27.045C23.1688 27.0043 23.0342 26.9517 22.6598 26.9013C22.0504 26.8251 21.4182 26.5715 20.8164 26.2686C20.5316 26.1329 20.2835 26.0637 20.0382 25.9576C19.488 25.724 19.0162 25.5136 18.6507 25.4287C18.5112 25.4149 17.8482 25.2149 17.5005 25.0108C17.3799 24.9484 17.3101 24.8887 17.2309 24.8704C17.0484 24.8282 16.9312 24.9007 16.8487 24.9286C16.4027 25.1622 15.9851 25.364 15.5993 25.5728C15.2402 25.7658 14.9096 25.9664 14.5592 26.1692C14.2432 26.3528 13.8781 26.5258 13.5027 26.706C13.5027 26.706 12.4325 27.2453 11.8479 27.4549C11.3408 27.8712 10.3041 28.5913 9.67138 28.948C9.35802 29.0977 8.74931 29.4855 8.4685 29.5722C8.3083 29.7019 7.73754 30.1114 7.29068 30.449C6.94538 30.7087 6.68452 30.9277 6.68452 30.9277C6.48397 31.1085 6.49762 31.1944 6.11631 31.0315C6.01041 31.119 5.92866 31.1734 5.86056 31.2236C5.58515 31.4245 5.56175 31.3761 5.4611 31.3708C5.2691 31.5379 5.24494 31.4515 5.07709 31.6438C4.96684 31.8154 5.07964 31.7744 4.84714 31.8576C4.79809 31.8766 4.77484 31.9362 4.73704 31.9692C4.55013 32.124 4.54938 32.5613 4.10162 32.5926C3.84242 32.7785 3.90872 33.0031 3.71072 32.9933C3.72287 33.1862 3.36031 33.4677 3.29491 33.4668C2.724 33.6649 2.6844 33.2429 1.99904 33.5578C1.91038 33.5986 1.78033 33.7113 1.60903 33.7439C1.30767 33.801 0.943466 33.7412 0.721312 33.5682C0.371656 33.2972 0.0497498 32.7743 0.0497498 32.7743C-0.0614022 32.5102 0.00324897 32.3433 0.350205 32.0937C0.494808 32.0012 0.521508 31.932 0.764363 31.9153C0.884965 31.8694 0.852114 31.9395 1.06752 31.8619C1.19232 31.8168 1.19232 31.8489 1.44373 31.8273C1.50133 31.7883 1.58233 31.7744 1.69078 31.739C1.88968 31.673 2.08349 31.5996 2.08349 31.5996C2.08349 31.5996 2.13419 31.5485 2.32544 31.5667C2.48729 31.5001 2.6535 31.4011 2.7387 31.3708C2.7171 31.1131 2.7447 31.1251 2.8635 31.0214C3.01155 30.893 3.03825 30.914 3.14851 30.9935C3.19501 30.9665 3.21736 30.9573 3.21226 30.9181C3.19411 30.7838 3.07965 30.7207 3.11416 30.4248C3.0633 30.3062 2.98845 30.1599 3.0048 30.0716C3.02895 29.9762 3.0522 29.9302 3.10981 29.8999C3.17101 29.8672 3.19081 29.9114 3.22351 29.9483C3.28201 30.0168 3.32941 30.2195 3.32941 30.2195C3.35011 30.4481 3.42061 30.7442 3.64532 30.5771C3.77792 30.442 3.80372 30.082 4.07402 30.159L4.26693 30.3276C4.43058 30.1729 4.43838 30.1729 4.53648 30.1106C4.53648 30.1106 4.38318 29.9548 4.51758 29.8336C4.60968 29.7512 4.72069 29.6923 4.91794 29.4725C5.45945 28.8709 5.73755 28.605 6.32316 28.1202C7.49154 27.1541 8.82086 26.4764 9.66553 26.1395C9.94093 25.788 10.2088 25.5544 10.8201 25.4954C11.5467 24.2617 12.9381 23.16 13.2576 22.9843C13.5176 22.5106 13.6304 22.561 13.9705 22.4658C14.2399 22.2487 14.3011 22.2487 14.4217 22.0218C14.5388 21.5537 14.1514 20.3027 15.1405 20.2395C15.3506 19.9411 15.2981 20.0127 15.5323 19.7305C15.3739 19.3375 15.3085 19.0087 15.2654 18.7255C15.2576 18.6926 14.8729 18.4199 14.9821 18.064C14.8186 17.8684 14.5129 17.4119 14.4173 17.1981C14.3735 17.199 14.3372 17.1824 14.2891 17.1757C14.2391 17.1677 14.177 17.1706 14.1074 17.1646C13.9534 17.5642 13.7855 17.5939 13.5116 17.6822C13.0226 18.73 12.8504 19.1736 11.4668 20.0398C10.9174 20.6582 10.7418 21.3471 10.7443 21.3368C10.6497 21.541 10.6831 21.8268 10.7331 21.9801C10.6608 22.2069 10.6797 22.2294 10.6797 22.2294C10.7098 22.315 10.7883 22.4284 10.8846 22.4526C11.0508 22.4968 11.217 22.4897 11.2074 22.6758C11.1851 22.9086 10.8811 22.8705 10.7373 22.8445C10.1836 22.7562 10.3585 22.3934 10.0045 22.5146C9.73333 22.693 9.63177 23.2193 9.18912 23.151C9.13062 23.1121 9.14862 22.997 9.18822 22.9139C9.25032 22.7841 9.36042 22.6767 9.29502 22.628C9.00638 22.7209 8.71822 22.8153 8.43055 22.9112C8.15935 22.9855 7.86219 22.8497 8.1292 22.6703C8.25325 22.6219 8.43055 22.5612 8.64926 22.4203C8.64926 22.4203 8.76191 22.2662 8.54591 22.3432C8.30995 22.428 7.96209 22.4808 7.71249 22.4532C7.71249 22.4532 7.19498 22.3849 7.12868 22.344C7.06148 22.3031 7.00043 22.1423 7.16228 22.1432C7.36718 22.1451 7.88034 22.0843 8.27815 21.9778C8.47015 21.9025 8.83526 21.6854 9.04016 21.5831C9.04016 21.5831 9.26232 21.2577 9.38457 21.1936C9.58857 20.9574 9.76078 20.8179 9.94153 20.5763C10.1181 20.21 10.3006 19.6302 10.8852 18.7324C11.1555 18.3186 11.4914 17.8366 11.9141 17.4056C11.9141 17.4056 12.0234 16.7157 12.5736 16.2248C12.6951 15.9374 12.8793 15.599 13.061 15.2856C13.1316 15.1652 13.1987 15.0606 13.2659 14.9462C13.4364 14.677 13.6155 14.1759 14.2802 14.097C14.2802 14.097 14.5643 13.8859 14.6737 13.7358C14.8442 13.5895 14.8054 13.3619 14.944 13.2016C14.7322 12.994 14.1907 12.6035 14.138 12.0607C14.0821 11.4851 14.2861 11.0115 14.6323 10.661C15.0163 10.2749 15.421 10.0819 15.9125 10.1113C16.5264 10.203 16.6426 10.4073 16.8381 10.6099C17.0257 10.802 17.0955 10.6784 17.1747 10.9034C17.6896 11.0411 17.6611 10.9804 17.6568 11.3614C17.736 11.4686 17.8686 11.5683 17.8668 11.7908C18.0399 11.4297 18.0742 11.3632 18.5367 10.9658C18.646 10.6429 18.7203 10.3253 18.8163 10.0024C18.9064 9.70379 19.0185 9.39643 19.1053 9.16523C19.0132 8.51251 19.2024 8.40438 19.4549 7.83219C19.4102 7.75346 19.4198 7.73099 19.4387 7.60189C19.5368 7.22365 19.6901 6.72325 19.7813 6.39689C19.7813 6.39689 19.8114 6.26704 19.9449 6.25754C20.0604 5.84461 20.2335 5.07591 20.2626 4.91921C20.3814 4.48728 20.3048 4.34868 20.2136 4.10542C20.1843 4.02579 20.198 3.91238 20.1474 3.824C20.0036 3.57214 19.8488 3.24487 19.7438 3.01111C19.6757 2.86226 19.568 2.30123 19.568 2.30123C19.4756 2.01483 19.5557 2.30138 19.5557 2.30138Z" fill="white"/>
</svg>
