<svg width="40" height="20" viewBox="0 0 40 20" fill="none" xmlns="http://www.w3.org/2000/svg">
<path d="M20.2816 6.79497L22.1332 3.56665L28.4232 3.16332L28.6432 2.76999L22.8299 2.36666L24.1966 0.01H34.9799C38.2965 0.01 40.7465 1.20166 39.7915 4.67665C39.5082 5.73998 38.1598 8.3983 34.1982 9.50829C35.0432 9.60829 37.1315 10.535 36.7648 12.9366C36.1248 17.1999 30.6149 19.2266 27.5432 19.2266L14.8083 19.2366L14.1749 16.7699L20.8499 16.3033L21.0782 15.9083L13.8349 15.4683L13.0566 12.5433L23.3532 11.9383L23.5816 11.5533L5.08831 10.3983L5.97831 8.85663L25.8916 7.56497L26.1216 7.17997L20.2816 6.79497ZM28.6149 7.43664L30.4482 7.42664C31.6782 7.4183 32.9515 6.85997 33.4199 5.72998C33.8515 4.67665 33.2732 3.77832 32.5032 3.78665H30.7249L28.6149 7.43664ZM26.4982 11.095L24.2882 14.9366H26.3966C27.3782 14.9366 29.1299 14.4499 29.6699 13.0566C30.1732 11.755 29.2482 11.095 28.6065 11.095H26.4966H26.4982ZM10.4333 17.0266L9.14996 19.2183L0 19.2349L0.889996 17.6966L10.4333 17.0266ZM11.075 0L18.4366 0.01L18.9966 2.08999L10.2033 1.53999L11.075 0ZM19.4083 3.74165L20.2149 6.79497L7.64497 5.96997L8.52496 4.43665L19.4083 3.74165ZM13.0083 12.5433L11.4133 15.3116L2.54666 14.8083L3.43665 13.2683L13.0083 12.5433Z" fill="black"/>
</svg>
