<svg width="36" height="13" viewBox="0 0 36 13" fill="none" xmlns="http://www.w3.org/2000/svg">
<path d="M36 0L9.6628 11.2141C7.47878 12.1381 5.64426 12.6016 4.16075 12.6016C2.48074 12.6016 1.26123 12.0136 0.505225 10.8361C0.029721 10.0801 -0.10978 9.12157 0.0852214 7.95906C0.280223 6.79655 0.799227 5.55904 1.63923 4.24203C2.33974 3.17703 3.48725 1.77751 5.08476 0.0420001C4.5429 0.895006 4.14556 1.8316 3.90875 2.81402C3.48875 4.60654 3.86675 5.92205 5.04276 6.76205C5.60226 7.15356 6.37177 7.35006 7.35278 7.35006C8.13578 7.35006 9.01779 7.22406 9.9988 6.97205L36 0Z" fill="white"/>
</svg>
