<svg width="36" height="14" viewBox="0 0 36 14" fill="none" xmlns="http://www.w3.org/2000/svg">
<path d="M35.1675 0.786317C34.917 1.37382 35.4035 2.30482 34.7025 2.48732L12.926 2.41432L10.6155 2.46232L10.2885 2.96232L7.563 13.3018L7.1855 13.4733L3.507 13.4088L3.1615 12.6913C2.1375 8.47582 0.9855 4.33032 0 0.119817C0.9425 -0.00368267 2.0405 -0.0751824 2.9975 0.126318C3.995 3.20582 4.4485 6.48332 5.3175 9.67182L5.4315 9.76432L5.7005 9.46032L8.046 0.263317L8.3085 0.0433176L33.0405 0.0833177C33.749 0.304318 35.2285 -0.421683 35.1675 0.786317Z" fill="white"/>
<path d="M35.2015 4.75781C35.263 5.44981 34.6045 6.08431 34.124 6.48831C33.2275 6.09031 32.121 5.26931 31.019 5.86281C30.6745 6.12131 30.4325 6.58531 30.684 6.96781C32.21 8.10931 34.933 7.48731 35.507 9.80281C35.7905 10.7993 35.5635 12.0738 34.774 12.7798C33.502 13.9663 31.6575 14.2173 29.8795 13.7058C29.0995 13.3578 28.2275 13.1238 27.552 12.4988C27.8115 11.7903 28.2685 11.1843 28.759 10.6553C29.7505 10.9008 30.6145 11.7048 31.8395 11.5613C32.2445 11.5548 32.754 11.2748 32.954 10.8418C33.0985 9.11681 30.8955 9.78331 29.882 9.29231C28.851 9.04531 28.0365 8.16581 27.8335 7.17981C27.634 6.14881 27.9195 5.16031 28.7065 4.49731C30.5495 3.23681 33.4485 3.43581 35.2015 4.75781Z" fill="white"/>
<path d="M26.784 4.25681C26.8575 7.21881 26.845 10.2948 26.761 13.2408C25.8065 13.4868 24.732 13.2738 23.721 13.2718C22.9045 11.9113 22.4045 10.6103 21.468 9.2393C21.3495 9.1888 21.296 9.34681 21.213 9.37781L21.136 13.1813C20.4985 13.5303 19.5975 13.2133 18.858 13.3533L18.6955 12.8518C18.7255 10.0628 18.616 7.01681 18.8415 4.28381C19.6675 4.11031 20.5995 4.10581 21.5265 4.14231L21.795 4.32681L23.872 8.06081L24.1605 8.00531C24.089 6.90481 24.3285 5.51131 24.268 4.28881C24.982 3.98431 26.022 4.15081 26.784 4.25681Z" fill="white"/>
<path d="M14.1089 9.10883C14.0459 8.37433 13.7434 7.66483 13.4359 7.02883C13.0194 7.60133 13.0344 8.41233 12.8544 9.08533C13.1949 9.39783 13.7329 9.24383 14.1089 9.10883ZM16.3114 6.49983L17.9769 13.2408C17.2654 13.5023 16.3494 13.3053 15.5399 13.3173C15.1404 12.7578 15.3919 11.6868 14.4719 11.5688C13.6164 11.6208 12.5079 11.2863 11.9279 11.9643L11.5289 13.3458C10.7524 13.4453 9.81844 13.4513 9.10645 13.2653C9.88695 10.2138 10.7864 7.21383 11.7234 4.21433C12.8789 3.98733 14.3694 4.07233 15.5669 4.21283L16.3114 6.49983Z" fill="white"/>
<path d="M35.581 3.2008C35.5625 3.1923 35.536 3.1878 35.501 3.1878H35.469V3.3383H35.521C35.5535 3.3393 35.578 3.3323 35.5955 3.3213C35.6135 3.3068 35.6225 3.2858 35.6225 3.2578C35.623 3.2293 35.608 3.2098 35.581 3.2008ZM35.337 3.6103V3.1018C35.3695 3.1008 35.416 3.1018 35.4795 3.1018C35.5425 3.1028 35.578 3.1018 35.5835 3.1018C35.6255 3.1048 35.659 3.1133 35.685 3.1293C35.7305 3.1528 35.7525 3.1943 35.7525 3.2493C35.7525 3.2928 35.7415 3.3238 35.7175 3.3413C35.694 3.3608 35.665 3.3723 35.63 3.3748C35.6625 3.3818 35.686 3.3928 35.7025 3.4053C35.7325 3.4308 35.7495 3.4698 35.749 3.5213L35.7495 3.5658C35.749 3.5708 35.751 3.5758 35.749 3.5818C35.749 3.5858 35.751 3.5918 35.751 3.5958L35.7545 3.6123L35.6285 3.6098C35.6245 3.5953 35.6215 3.5708 35.6205 3.5393C35.62 3.5098 35.617 3.4898 35.6115 3.4778C35.6045 3.4593 35.5915 3.4463 35.5745 3.4393C35.5635 3.4363 35.548 3.4328 35.527 3.4318H35.498L35.469 3.4308V3.6108L35.337 3.6103ZM35.272 3.0913C35.1985 3.1643 35.162 3.2528 35.162 3.3568C35.162 3.4608 35.1995 3.5518 35.274 3.6268C35.3485 3.7008 35.4365 3.7373 35.54 3.7358C35.6445 3.7378 35.735 3.6988 35.81 3.6248C35.882 3.5503 35.9195 3.4598 35.9195 3.3568C35.9195 3.2528 35.882 3.1643 35.809 3.0918C35.7325 3.0143 35.6445 2.9763 35.54 2.9763C35.4365 2.9763 35.3465 3.0143 35.272 3.0913ZM35.8625 3.6858C35.772 3.7718 35.665 3.8163 35.54 3.8153C35.41 3.8138 35.301 3.7703 35.212 3.6823C35.125 3.5938 35.082 3.4833 35.08 3.3548C35.08 3.2208 35.1285 3.1088 35.2245 3.0208C35.3145 2.9358 35.419 2.8953 35.541 2.8938C35.667 2.8938 35.7775 2.9388 35.8645 3.0283C35.9555 3.1203 36 3.2278 36 3.3548C36.0005 3.4858 35.9555 3.5973 35.8625 3.6858Z" fill="white"/>
</svg>
